<?xml version="1.0" encoding="UTF-8" standalone="no"?>
<!-- Created with Inkscape (http://www.inkscape.org/) -->

<svg
   xmlns:dc="http://purl.org/dc/elements/1.1/"
   xmlns:cc="http://creativecommons.org/ns#"
   xmlns:rdf="http://www.w3.org/1999/02/22-rdf-syntax-ns#"
   xmlns:svg="http://www.w3.org/2000/svg"
   xmlns="http://www.w3.org/2000/svg"
   xmlns:sodipodi="http://sodipodi.sourceforge.net/DTD/sodipodi-0.dtd"
   xmlns:inkscape="http://www.inkscape.org/namespaces/inkscape"
   version="1.1"
   id="svg118"
   xml:space="preserve"
   width="105"
   height="109"
   viewBox="0 0 105 109"
   sodipodi:docname="Store(2).svg"
   inkscape:version="0.92.3 (2405546, 2018-03-11)"><metadata
     id="metadata124"><rdf:RDF><cc:Work
         rdf:about=""><dc:format>image/svg+xml</dc:format><dc:type
           rdf:resource="http://purl.org/dc/dcmitype/StillImage" /><dc:title></dc:title></cc:Work></rdf:RDF></metadata><defs
     id="defs122"><clipPath
       clipPathUnits="userSpaceOnUse"
       id="clipPath134"><path
         d="M 0,0 H 1562.5 V 1593.75 H 0 Z"
         id="path132"
         inkscape:connector-curvature="0"
         style="clip-rule:evenodd" /></clipPath><clipPath
       clipPathUnits="userSpaceOnUse"
       id="clipPath148"><path
         d="M 0,0 H 1562.5 V 1562.5 H 0 Z"
         id="path146"
         inkscape:connector-curvature="0"
         style="clip-rule:evenodd" /></clipPath><clipPath
       clipPathUnits="userSpaceOnUse"
       id="clipPath160"><path
         d="M 395.36945,376.39169 H 1170.0802 V 1185.7667 H 395.36945 Z"
         id="path158"
         inkscape:connector-curvature="0"
         style="clip-rule:evenodd" /></clipPath><clipPath
       clipPathUnits="userSpaceOnUse"
       id="clipPath174"><path
         d="M 0,0 H 1562.5 V 1562.5 H 0 Z"
         id="path172"
         inkscape:connector-curvature="0"
         style="clip-rule:evenodd" /></clipPath><clipPath
       clipPathUnits="userSpaceOnUse"
       id="clipPath194"><path
         d="m 632.81317,566.27185 h 300 v 196.875 h -300 z"
         id="path192"
         inkscape:connector-curvature="0"
         style="clip-rule:evenodd" /></clipPath></defs><sodipodi:namedview
     pagecolor="#ffffff"
     bordercolor="#666666"
     borderopacity="1"
     objecttolerance="10"
     gridtolerance="10"
     guidetolerance="10"
     inkscape:pageopacity="0"
     inkscape:pageshadow="2"
     inkscape:window-width="1865"
     inkscape:window-height="1016"
     id="namedview120"
     showgrid="false"
     inkscape:zoom="2.6700352"
     inkscape:cx="250"
     inkscape:cy="145.13247"
     inkscape:window-x="55"
     inkscape:window-y="27"
     inkscape:window-maximized="1"
     inkscape:current-layer="g126" /><g
     id="g126"
     inkscape:groupmode="layer"
     inkscape:label="Store(1)"
     transform="matrix(0.31999998,0,0,0.31999998,0,-390.99999)"><g
       id="g128" /><g
       id="g154"
       transform="matrix(0.4069786,0,0,0.4069786,-149.54171,1076.7516)"><g
         id="g156"
         clip-path="url(#clipPath160)"><g
           id="g162"
           transform="matrix(1.8719807,0,0,1.8717649,395.08023,377.24591)"><path
             d="m 404.70001,215.8 c 0,-22.3 14,-46.59999 7.5,-66.69999 -6.79999,-20.9 -32.6,-32.2 -45.20001,-49.600002 C 354.20001,82 351.39999,54 333.79999,41.200001 316.39999,28.6 289,34.400002 268.09998,27.6 248,21.1 229.3,0 207,0 184.7,0 166,21.1 145.89999,27.6 124.99999,34.400002 97.599991,28.5 80.199997,41.200001 62.599998,54 59.700001,82 47,99.5 34.400002,116.9 8.5,128.2 1.7999992,149.10001 c -6.5,20.1 7.5,44.39999 7.5,66.69999 0,22.30001 -14,46.59999 -7.5,66.7 C 8.5,303.29999 34.299999,314.60001 47,332 c 12.799999,17.5 15.599998,45.60001 33.199997,58.29999 17.400001,12.6 44.800003,6.79999 65.699993,13.6 C 166,410.39999 184.7,431.5 207,431.5 c 22.3,0 41,-21.10001 61.10001,-27.60001 C 289,397.10001 316.39999,403 333.79999,390.29999 351.29999,377.5 354.19998,349.5 367,332 c 12.60001,-17.39999 38.5,-28.70001 45.20001,-49.60001 6.59998,-20.1 -7.5,-44.29998 -7.5,-66.59999 z"
             style="fill:#266c78;fill-opacity:1;fill-rule:nonzero;stroke:none"
             id="path164"
             inkscape:connector-curvature="0" /><path
             d="m 207,410.70001 c -12.5,0 -23.60001,-7 -34.39999,-13.79999 -7.10001,-4.5 -13.9,-8.79998 -20.9,-11 -7.39999,-2.39999 -16,-3 -24.3,-3.6 -12.5,-0.9 -25.4,-1.79999 -35.000001,-8.79999 -9.699997,-7.10001 -14.599998,-19.10001 -19.300003,-30.79999 -3.099998,-7.70001 -6.300003,-15.6 -10.799999,-21.79999 -4.400002,-6.1 -10.899998,-11.5 -17.200001,-16.79998 -9.700001,-8.10001 -19.799999,-16.5 -23.5,-28.10001 -3.6,-11.10001 -0.5,-23.5 2.5,-35.5 2,-8.2 4.200001,-16.7 4.200001,-24.7 0,-8 -2.100001,-16.5 -4.200001,-24.69999 -3,-12 -6.1,-24.5 -2.5,-35.5 3.799999,-11.60001 13.799999,-20 23.5,-28.1 6.299999,-5.2 12.799999,-10.7 17.200001,-16.8 4.499996,-6.19999 7.700001,-14.099995 10.799999,-21.8 4.699997,-11.699997 9.599999,-23.699997 19.300003,-30.799999 9.600001,-7 22.500001,-7.900002 35.000001,-8.799999 8.3,-0.599999 16.89999,-1.200001 24.3,-3.599999 7,-2.299999 13.7,-6.5 20.9,-11 C 183.40001,27.900074 194.5,20.900074 207,20.900074 c 12.5,0 23.60001,7 34.39999,13.799999 7.10001,4.5 13.9,8.799999 20.9,11 7.39999,2.400002 16,3 24.29999,3.599999 12.5,0.900001 25.39999,1.799999 35,8.799999 9.70001,7.100002 14.6,19.100002 19.29998,30.799999 3.10001,7.699997 6.29999,15.6 10.79999,21.8 4.4,6.1 10.9,11.5 17.20001,16.80001 9.70002,8.1 19.79999,16.5 23.5,28.1 3.60001,11.10001 0.5,23.5 -2.5,35.5 -2,8.2 -4.20001,16.7 -4.20001,24.7 0,8 2.10001,16.5 4.20001,24.7 3,12 6.10001,24.49998 2.5,35.49998 -3.79998,11.60001 -13.79998,20 -23.5,28.10001 -6.29998,5.20001 -12.79998,10.70001 -17.20001,16.79998 -4.5,6.20002 -7.70001,14.10001 -10.79999,21.79999 -4.70001,11.70001 -9.6,23.70001 -19.29998,30.79999 -9.60001,7 -22.5,7.89999 -35,8.79999 -8.29999,0.6 -16.9,1.20001 -24.29999,3.6 -7,2.29999 -13.7,6.5 -20.9,11 C 230.60001,403.60001 219.5,410.70001 207,410.70001 Z M 207,23.9 c -11.60001,0 -22.39999,6.800001 -32.8,13.300001 -7,4.400001 -14.2,9 -21.60001,11.299999 -7.8,2.5 -16.5,3.099998 -25,3.700001 -12.6,0.900001 -24.5,1.700001 -33.499999,8.200001 -9,6.599998 -13.699997,18.200004 -18.300003,29.5 C 72.599991,97.700005 69.399986,105.9 64.599991,112.4 c -4.700001,6.4 -11.299999,11.9 -17.700001,17.3 -9.399998,7.8 -19.1,15.89999 -22.6,26.69999 -3.3,10.2 -0.5,21.7 2.6,33.9 2.1,8.39999 4.200001,17.1 4.200001,25.39999 0,8.29999 -2.200001,17 -4.200001,25.4 -3,12.19999 -5.9,23.6 -2.6,33.89999 3.5,10.79999 13.199999,18.89999 22.6,26.70001 6.400002,5.4 13.100002,10.9 17.700001,17.29999 4.699997,6.5 8,14.60001 11.199997,22.5 4.5,11.29999 9.199997,22.89999 18.300003,29.5 8.899999,6.5 20.799999,7.29999 33.499999,8.20001 8.5,0.60001 17.3,1.20001 25,3.70001 7.39999,2.4 14.60001,6.9 21.60001,11.29999 10.39999,6.60001 21.19999,13.29999 32.8,13.29999 11.60001,0 22.39999,-6.79999 32.8,-13.29999 7,-4.39999 14.2,-9 21.59999,-11.29999 7.79999,-2.5 16.5,-3.1 25,-3.70001 12.60001,-0.89999 24.5,-1.70001 33.5,-8.20001 9,-6.60001 13.70002,-18.20001 18.29999,-29.5 3.20001,-7.79999 6.4,-16 11.20001,-22.5 4.70002,-6.39999 11.29999,-11.89999 17.70002,-17.29999 9.39999,-7.79999 19.1,-15.89999 22.6,-26.70001 3.29999,-10.20001 0.5,-21.7 -2.6,-33.89999 -2.10001,-8.4 -4.20002,-17.10001 -4.20002,-25.4 0,-8.39999 2.20002,-17 4.20002,-25.39999 3,-12.2 5.89999,-23.60001 2.6,-33.9 -3.5,-10.8 -13.20001,-18.89999 -22.6,-26.69999 -6.4,-5.4 -13.10001,-10.9 -17.70002,-17.30001 -4.70001,-6.5 -8,-14.599995 -11.20001,-22.499996 -4.5,-11.300003 -9.20001,-22.900002 -18.29999,-29.5 -8.89999,-6.5 -20.79998,-7.299999 -33.5,-8.200001 -8.5,-0.599998 -17.29998,-1.200001 -25,-3.700001 -7.39999,-2.400001 -14.6,-6.900001 -21.6,-11.299999 C 229.3,30.6 218.60001,23.9 207,23.9 Z"
             style="fill:#c4543d;fill-opacity:1;fill-rule:nonzero;stroke:none"
             id="path166"
             inkscape:connector-curvature="0" /></g></g></g><g
       id="g168"
       transform="matrix(0.4069786,0,0,0.4069786,-149.54171,1076.7516)"
       style="fill:#e9c6af"><g
         id="g170"
         clip-path="url(#clipPath174)"
         style="fill:#e9c6af"><g
           id="g176"
           transform="matrix(3.125,0,0,3.125,218.49535,815.53955)"
           style="fill:#e9c6af"><text
             transform="translate(120.01563,25)"
             style="font-variant:normal;font-weight:bold;font-size:27.89999962px;font-family:LeagueSpartan;-inkscape-font-specification:LeagueSpartan-Bold;writing-mode:lr-tb;fill:#e9c6af;fill-opacity:1;fill-rule:nonzero;stroke:none"
             id="text180"><tspan
               x="0 20.806746 37.820354 55.28022 76.086967 101.38412"
               y="0"
               sodipodi:role="line"
               id="tspan178">RETROS</tspan></text>
</g><g
           id="g182"
           transform="matrix(3.125,0,0,3.125,218.0594,924.43475)"
           style="fill:#e9c6af"><text
             transform="translate(146.51562,20)"
             style="font-style:italic;font-variant:normal;font-weight:bold;font-size:18.60000038px;font-family:Montserrat;-inkscape-font-specification:Montserrat-BoldItalic;writing-mode:lr-tb;fill:#e9c6af;fill-opacity:1;fill-rule:nonzero;stroke:none"
             id="text186"><tspan
               x="0 12.420852 24.469831 40.721004 54.945446"
               y="0"
               sodipodi:role="line"
               id="tspan184">STORE</tspan></text>
</g></g></g><g
       id="g188"
       transform="matrix(0.4069786,0,0,0.4069786,-149.54171,1076.7516)"><g
         id="g190"
         clip-path="url(#clipPath194)"><g
           id="g196"
           transform="matrix(1.2100491,0,0,1.2100491,632.66687,566.27185)"><path
             d="M 250,22.299999 V 140.3 c 0,12.30001 -10,22.30001 -22.3,22.30001 H 22.299999 C 10,162.7 0,152.7 0,140.3 V 22.300003 C 0,10 10,0 22.299999,0 H 227.60001 C 240,0 250,10 250,22.299999 Z"
             style="fill:#43434f;fill-opacity:1;fill-rule:nonzero;stroke:none"
             id="path198"
             inkscape:connector-curvature="0" /><path
             d="m 230.60001,32.5 v 63.900002 c 0,2.5 -0.7,4.800008 -1.9,6.800008 -0.6,1 -1.3,1.9 -2.19999,2.8 -2.30001,2.2 -5.5,3.6 -9,3.6 H 32.500015 c -3.5,0 -6.700001,-1.4 -9,-3.6 -0.899999,-0.8 -1.6,-1.7 -2.200001,-2.8 -1.2,-2 -1.899999,-4.300008 -1.899999,-6.800008 V 32.5 c 0,-2.5 0.700001,-4.799999 1.899999,-6.700001 C 23.600014,22 27.800014,19.4 32.500015,19.4 H 217.50002 c 4.8,0 8.89999,2.5 11.19999,6.399999 1.19998,1.900002 1.9,4.200001 1.9,6.700001 z"
             style="fill:#000000;fill-opacity:0.14900004;fill-rule:nonzero;stroke:none"
             id="path200"
             inkscape:connector-curvature="0" /><path
             d="M 216.8,162.7 H 33.200001 L 38,129.29999 c 0,-7.5 6.099998,-13.5 13.5,-13.5 h 147 c 7.5,0 13.5,6.1 13.5,13.5 z"
             style="fill:#000000;fill-opacity:0.14900004;fill-rule:nonzero;stroke:none"
             id="path202"
             inkscape:connector-curvature="0" /><path
             d="m 21.700001,145 c -2e-6,0.76912 -0.147169,1.50897 -0.441502,2.21954 -0.294332,0.71059 -0.713425,1.33782 -1.25728,1.88167 -0.543858,0.54384 -1.171078,0.96294 -1.881659,1.25728 -0.710581,0.29433 -1.450434,0.4415 -2.21956,0.44151 -0.769128,-1e-5 -1.508984,-0.14718 -2.219566,-0.44151 -0.710582,-0.29434 -1.3378,-0.71344 -1.881655,-1.25728 -0.543855,-0.54385 -0.962949,-1.17108 -1.257283,-1.88167 -0.294331,-0.71057 -0.441497,-1.45042 -0.441497,-2.21954 0,-0.76914 0.147166,-1.50899 0.441497,-2.21957 0.294334,-0.71059 0.713428,-1.33782 1.257283,-1.88166 0.543855,-0.54387 1.171074,-0.96296 1.881656,-1.25729 C 14.391017,139.34715 15.130872,139.2 15.9,139.2 c 0.769126,0 1.508979,0.14717 2.21956,0.44149 0.710581,0.29433 1.337801,0.71341 1.881659,1.25728 0.543855,0.54384 0.962948,1.17107 1.25728,1.88166 0.294333,0.71058 0.4415,1.45043 0.441502,2.21957 z"
             style="fill:#000000;fill-opacity:0.14900004;fill-rule:nonzero;stroke:none"
             id="path204"
             inkscape:connector-curvature="0" /><path
             d="m 130.8,127.8 c 0,0.76912 -0.14717,1.50897 -0.4415,2.21956 -0.29434,0.71059 -0.71344,1.3378 -1.25729,1.88165 -0.54387,0.54384 -1.17109,0.96294 -1.88167,1.25728 -0.71057,0.29433 -1.45042,0.4415 -2.21954,0.44152 -0.76913,-2e-5 -1.50899,-0.14719 -2.21957,-0.44152 -0.71059,-0.29434 -1.33781,-0.71344 -1.88166,-1.25728 -0.54387,-0.54385 -0.96296,-1.17108 -1.25729,-1.88166 -0.29433,-0.71059 -0.44149,-1.45043 -0.44148,-2.21955 -1e-5,-0.76913 0.14715,-1.50899 0.44149,-2.21958 0.29432,-0.71058 0.71341,-1.3378 1.25728,-1.88165 0.54385,-0.54385 1.17107,-0.96294 1.88165,-1.25728 C 123.49101,122.14716 124.23087,122 125,122 c 0.76912,0 1.50897,0.14716 2.21954,0.44149 0.71058,0.29434 1.3378,0.71343 1.88167,1.25728 0.54385,0.54385 0.96295,1.17107 1.25729,1.88165 0.29433,0.71059 0.4415,1.45045 0.4415,2.21958 z"
             style="fill:#000000;fill-opacity:0.14900004;fill-rule:nonzero;stroke:none"
             id="path206"
             inkscape:connector-curvature="0" /><path
             d="m 240.40001,145 c -2e-5,0.76912 -0.14719,1.50897 -0.44153,2.21954 -0.29433,0.71059 -0.71342,1.33782 -1.25728,1.88167 -0.54387,0.54384 -1.17108,0.96294 -1.88167,1.25728 -0.71057,0.29433 -1.4504,0.4415 -2.21952,0.44151 -0.76915,-1e-5 -1.50901,-0.14718 -2.21959,-0.44151 -0.71059,-0.29434 -1.3378,-0.71344 -1.88166,-1.25728 -0.54386,-0.54385 -0.96296,-1.17108 -1.25729,-1.88167 -0.29433,-0.71057 -0.44148,-1.45042 -0.44147,-2.21954 -1e-5,-0.76914 0.14714,-1.50899 0.44147,-2.21957 0.29433,-0.71059 0.71343,-1.33782 1.25729,-1.88166 0.54386,-0.54387 1.17107,-0.96296 1.88166,-1.25729 0.71058,-0.29433 1.45044,-0.44148 2.21959,-0.44148 0.76912,0 1.50895,0.14717 2.21954,0.44149 0.71059,0.29433 1.3378,0.71341 1.88167,1.25728 0.54385,0.54384 0.96295,1.17107 1.25728,1.88166 0.29432,0.71058 0.44149,1.45043 0.44151,2.21957 z"
             style="fill:#000000;fill-opacity:0.14900004;fill-rule:nonzero;stroke:none"
             id="path208"
             inkscape:connector-curvature="0" /><path
             d="m 21.700001,13.6 c -2e-6,0.769126 -0.147169,1.50898 -0.441502,2.219561 -0.294332,0.710581 -0.713425,1.337801 -1.25728,1.881659 -0.543858,0.543853 -1.171078,0.962947 -1.881659,1.25728 C 17.408979,19.252832 16.669126,19.4 15.9,19.400002 15.130872,19.4 14.391016,19.252832 13.680434,18.9585 12.969852,18.664167 12.342634,18.245073 11.798779,17.70122 11.254924,17.157362 10.83583,16.530142 10.541496,15.819561 10.247165,15.10898 10.099999,14.369126 10.099999,13.6 c 0,-0.769128 0.147166,-1.508984 0.441497,-2.219566 0.294334,-0.710582 0.713428,-1.337799 1.257283,-1.8816537 C 12.342634,8.9549236 12.969853,8.5358295 13.680435,8.241498 14.391017,7.947166 15.130872,7.8000002 15.9,7.8000002 c 0.769126,0 1.508979,0.1471658 2.21956,0.4414978 0.710581,0.2943315 1.337801,0.7134256 1.881659,1.2572823 0.543855,0.5438547 0.962948,1.1710727 1.25728,1.8816547 0.294333,0.710582 0.4415,1.450437 0.441502,2.219565 z"
             style="fill:#000000;fill-opacity:0.14900004;fill-rule:nonzero;stroke:none"
             id="path210"
             inkscape:connector-curvature="0" /><path
             d="m 240.40001,13.6 c -2e-5,0.769126 -0.14719,1.50898 -0.44153,2.219561 -0.29433,0.710581 -0.71342,1.337801 -1.25728,1.881659 -0.54387,0.543853 -1.17108,0.962947 -1.88167,1.25728 -0.71057,0.294332 -1.4504,0.4415 -2.21952,0.441502 -0.76915,-2e-6 -1.50901,-0.14717 -2.21959,-0.441502 -0.71059,-0.294333 -1.3378,-0.713427 -1.88166,-1.25728 -0.54386,-0.543858 -0.96296,-1.171078 -1.25729,-1.881659 C 228.94714,15.10898 228.79999,14.369126 228.8,13.6 c -1e-5,-0.769128 0.14714,-1.508984 0.44147,-2.219566 0.29433,-0.710582 0.71343,-1.337799 1.25729,-1.8816537 0.54386,-0.5438567 1.17107,-0.9629508 1.88166,-1.2572823 0.71058,-0.294332 1.45044,-0.4414978 2.21959,-0.4414978 0.76912,0 1.50895,0.1471658 2.21954,0.4414978 0.71059,0.2943315 1.3378,0.7134256 1.88167,1.2572823 0.54385,0.5438547 0.96295,1.1710727 1.25728,1.8816547 0.29432,0.710582 0.44149,1.450437 0.44151,2.219565 z"
             style="fill:#000000;fill-opacity:0.14900004;fill-rule:nonzero;stroke:none"
             id="path212"
             inkscape:connector-curvature="0" /><path
             d="m 66.200005,145 c -8e-6,0.76912 -0.147171,1.50897 -0.441506,2.21954 -0.294334,0.71059 -0.713425,1.33782 -1.257278,1.88167 -0.543858,0.54384 -1.171078,0.96294 -1.881661,1.25728 -0.710582,0.29433 -1.450435,0.4415 -2.219558,0.44151 -0.769131,-1e-5 -1.508988,-0.14718 -2.219571,-0.44151 -0.710582,-0.29434 -1.337799,-0.71344 -1.881652,-1.25728 -0.543858,-0.54385 -0.962952,-1.17108 -1.257283,-1.88167 -0.294334,-0.71057 -0.441498,-1.45042 -0.441494,-2.21954 -4e-6,-0.76914 0.14716,-1.50899 0.441494,-2.21957 0.294331,-0.71059 0.713425,-1.33782 1.257283,-1.88166 0.543853,-0.54387 1.17107,-0.96296 1.881649,-1.25729 0.710582,-0.29433 1.450443,-0.44148 2.219574,-0.44148 0.769123,0 1.508976,0.14717 2.219558,0.44149 0.710583,0.29433 1.337803,0.71341 1.881661,1.25728 0.543853,0.54384 0.962944,1.17107 1.257278,1.88166 0.294335,0.71058 0.441498,1.45043 0.441506,2.21957 z"
             style="fill:#ffffff;fill-opacity:1;fill-rule:nonzero;stroke:none"
             id="path214"
             inkscape:connector-curvature="0" /><path
             d="m 88.499992,136.39999 c -7e-6,0.76912 -0.147178,1.50898 -0.441513,2.21955 -0.294326,0.71058 -0.713417,1.3378 -1.257271,1.88166 -0.543861,0.54384 -1.171081,0.96294 -1.88166,1.25728 -0.710579,0.29433 -1.450424,0.4415 -2.219551,0.44152 -0.769127,-2e-5 -1.508987,-0.14719 -2.219574,-0.44152 -0.710579,-0.29434 -1.337799,-0.71344 -1.881653,-1.25728 -0.543854,-0.54386 -0.962952,-1.17108 -1.257286,-1.88166 -0.294334,-0.71057 -0.441498,-1.45043 -0.44149,-2.21955 -8e-6,-0.76915 0.147156,-1.509 0.44149,-2.21957 0.294334,-0.71059 0.713432,-1.33781 1.257294,-1.88167 0.543854,-0.54385 1.171066,-0.96295 1.881645,-1.25728 0.710587,-0.29432 1.450447,-0.44148 2.219574,-0.44148 0.769127,0 1.508972,0.14716 2.219551,0.44148 0.710579,0.29433 1.337799,0.71343 1.88166,1.2573 0.543854,0.54385 0.962945,1.17106 1.257271,1.88165 0.294335,0.71057 0.441506,1.45042 0.441513,2.21957 z"
             style="fill:#ffffff;fill-opacity:1;fill-rule:nonzero;stroke:none"
             id="path216"
             inkscape:connector-curvature="0" /><path
             d="m 195.40001,145 c -2e-5,0.76912 -0.14719,1.50897 -0.44151,2.21954 -0.29433,0.71059 -0.71343,1.33782 -1.25727,1.88167 -0.54387,0.54384 -1.17109,0.96294 -1.8817,1.25728 -0.71057,0.29433 -1.4504,0.4415 -2.21952,0.44151 -0.76915,-1e-5 -1.50901,-0.14718 -2.21959,-0.44151 -0.71059,-0.29434 -1.3378,-0.71344 -1.88166,-1.25728 -0.54386,-0.54385 -0.96296,-1.17108 -1.25729,-1.88167 -0.29433,-0.71057 -0.44148,-1.45042 -0.44147,-2.21954 -1e-5,-0.76914 0.14714,-1.50899 0.44147,-2.21957 0.29436,-0.71059 0.71346,-1.33782 1.25732,-1.88166 0.54384,-0.54387 1.17104,-0.96296 1.88163,-1.25729 0.71058,-0.29433 1.45044,-0.44148 2.21959,-0.44148 0.76912,0 1.50895,0.14717 2.21954,0.44149 0.71059,0.29433 1.3378,0.71341 1.88167,1.25728 0.54385,0.54384 0.96295,1.17107 1.25728,1.88166 0.29432,0.71058 0.44149,1.45043 0.44151,2.21957 z"
             style="fill:#ffffff;fill-opacity:1;fill-rule:nonzero;stroke:none"
             id="path218"
             inkscape:connector-curvature="0" /><path
             d="m 230.60001,77.400002 v 19 c 0,2.5 -0.7,4.800008 -1.9,6.800008 H 21.299999 C 20.099998,101.20001 19.4,98.900002 19.4,96.400002 v -19 z"
             style="fill:#f04e3e;fill-opacity:1;fill-rule:nonzero;stroke:none"
             id="path220"
             inkscape:connector-curvature="0" /><path
             d="M 19.4,51.599998 H 230.6 V 77.399993 H 19.4 Z"
             style="fill:#fcca64;fill-opacity:1;fill-rule:nonzero;stroke:none"
             id="path222"
             inkscape:connector-curvature="0" /><path
             d="M 230.60001,32.5 V 51.599998 H 19.4 V 32.5 c 0,-2.5 0.7,-4.799999 1.899999,-6.700001 H 228.8 C 229.89999,27.700001 230.60001,30 230.60001,32.5 Z"
             style="fill:#43ada5;fill-opacity:1;fill-rule:nonzero;stroke:none"
             id="path224"
             inkscape:connector-curvature="0" /><path
             d="m 173.10001,136.39999 c -2e-5,0.76912 -0.14719,1.50898 -0.44153,2.21955 -0.29433,0.71058 -0.71341,1.3378 -1.25727,1.88166 -0.54385,0.54384 -1.17108,0.96294 -1.88166,1.25728 -0.71057,0.29433 -1.45043,0.4415 -2.21955,0.44152 -0.76915,-2e-5 -1.509,-0.14719 -2.21957,-0.44152 -0.71059,-0.29434 -1.33782,-0.71344 -1.88165,-1.25728 -0.54386,-0.54386 -0.96296,-1.17108 -1.2573,-1.88166 -0.29432,-0.71057 -0.4415,-1.45043 -0.44148,-2.21955 -2e-5,-0.76915 0.14716,-1.509 0.44148,-2.21957 0.29434,-0.71059 0.71344,-1.33781 1.2573,-1.88167 0.54383,-0.54385 1.17105,-0.96295 1.88163,-1.25728 0.71059,-0.29432 1.45044,-0.44148 2.21959,-0.44148 0.76912,0 1.50898,0.14716 2.21956,0.44148 0.71059,0.29433 1.3378,0.71343 1.88165,1.2573 0.54386,0.54385 0.96294,1.17106 1.25727,1.88165 0.29434,0.71057 0.44151,1.45042 0.44153,2.21957 z"
             style="fill:#ffffff;fill-opacity:1;fill-rule:nonzero;stroke:none"
             id="path226"
             inkscape:connector-curvature="0" /><path
             d="M 185.89999,91.300003 H 64.099998 c -5.7,0 -10.2,-4.599998 -10.2,-10.199997 V 48.200001 C 53.899998,42.5 58.499996,38 64.099998,38 H 185.89999 c 5.7,0 10.2,4.599998 10.2,10.200001 v 32.900005 c 2e-5,5.599991 -4.49998,10.199997 -10.2,10.199997 z"
             style="fill:#43434f;fill-opacity:1;fill-rule:nonzero;stroke:none"
             id="path228"
             inkscape:connector-curvature="0" /><path
             d="m 152.8,57.700001 v 13.100002 c 0,3 -2.39999,5.400002 -5.39999,5.400002 h -44.9 c -3.000002,0 -5.400004,-2.400002 -5.400004,-5.400002 V 57.700001 c 0,-3 2.400002,-5.400002 5.400004,-5.400002 h 44.9 c 2.99998,0 5.39999,2.400002 5.39999,5.400002 z"
             style="fill:#ffffff;fill-opacity:1;fill-rule:nonzero;stroke:none"
             id="path230"
             inkscape:connector-curvature="0" /><path
             d="m 116.9,64.599998 c 0,4.099999 -0.6,7.900002 -1.69999,11.599999 h -12.6 c -3.000004,0 -5.400005,-2.400002 -5.400005,-5.400002 V 57.700001 c 0,-3 2.400001,-5.400002 5.400005,-5.400002 h 12.3 c 1.29999,3.900002 1.99999,8 1.99999,12.299999 z"
             style="fill:#43434f;fill-opacity:1;fill-rule:nonzero;stroke:none"
             id="path232"
             inkscape:connector-curvature="0" /><path
             d="m 185.49998,64.599998 c -1e-5,1.737168 -0.33242,3.408219 -0.9972,5.013154 -0.66478,1.604927 -1.61136,3.021575 -2.83971,4.249939 -1.22836,1.228363 -2.645,2.174934 -4.24994,2.839721 -1.60493,0.664787 -3.27597,0.997177 -5.01314,0.997185 -1.73719,-8e-6 -3.40825,-0.332405 -5.01316,-0.997192 -1.60494,-0.66478 -3.0216,-1.611351 -4.24994,-2.839714 -1.22838,-1.228364 -2.17496,-2.645012 -2.83974,-4.249939 -0.66478,-1.604935 -0.99716,-3.275986 -0.99716,-5.013154 0,-1.737171 0.33238,-3.408226 0.99716,-5.013156 0.66478,-1.604935 1.61134,-3.021584 2.83972,-4.249943 1.22835,-1.228367 2.64501,-2.174942 4.24996,-2.839726 C 168.99174,51.83239 170.6628,51.5 172.39999,51.5 c 1.73717,0 3.40821,0.33239 5.01313,0.997173 1.60493,0.664784 3.02159,1.611359 4.24995,2.839726 1.22835,1.228359 2.17493,2.645008 2.83971,4.249939 0.66478,1.604934 0.99719,3.275989 0.9972,5.01316 z"
             style="fill:#000000;fill-opacity:0.2;fill-rule:nonzero;stroke:none"
             id="path234"
             inkscape:connector-curvature="0" /><path
             d="m 181.99998,64.599998 c -1e-5,1.273034 -0.24359,2.49762 -0.73075,3.673752 -0.48717,1.17614 -1.18085,2.214295 -2.08101,3.114464 -0.9002,0.900169 -1.93836,1.593842 -3.11449,2.081017 -1.17613,0.487175 -2.40071,0.730766 -3.67374,0.730766 -1.27305,0 -2.49763,-0.243591 -3.67376,-0.730766 -1.17615,-0.487168 -2.21431,-1.18084 -3.11448,-2.081009 -0.90019,-0.900177 -1.59387,-1.938332 -2.08103,-3.114464 -0.48717,-1.17614 -0.73075,-2.400726 -0.73073,-3.67376 -2e-5,-1.27304 0.24356,-2.497631 0.73073,-3.673767 0.48716,-1.176136 1.18084,-2.214286 2.08103,-3.11446 0.90017,-0.900173 1.93833,-1.593849 3.11448,-2.08102 C 169.90236,55.243584 171.12694,55 172.39999,55 c 1.27303,0 2.49761,0.243584 3.67374,0.730751 1.17613,0.487171 2.21429,1.180847 3.11447,2.08102 0.90018,0.900174 1.59386,1.938324 2.08103,3.11446 0.48716,1.176136 0.73074,2.400727 0.73075,3.673767 z"
             style="fill:#ffffff;fill-opacity:1;fill-rule:nonzero;stroke:none"
             id="path236"
             inkscape:connector-curvature="0" /><path
             d="m 90.699997,64.599998 c -8e-6,1.737168 -0.332398,3.408219 -0.997185,5.013154 -0.664787,1.604927 -1.611358,3.021575 -2.839721,4.249939 -1.228371,1.228363 -2.64502,2.174934 -4.249947,2.839721 -1.604935,0.664787 -3.275986,0.997177 -5.013146,0.997185 -1.737175,-8e-6 -3.408226,-0.332405 -5.01316,-0.997192 -1.604935,-0.66478 -3.021584,-1.611351 -4.249939,-2.839714 -1.228371,-1.228364 -2.174942,-2.645012 -2.83973,-4.249939 C 64.832382,68.008217 64.499992,66.337166 64.5,64.599998 c -8e-6,-1.737171 0.332382,-3.408226 0.997169,-5.013156 0.664788,-1.604935 1.611359,-3.021584 2.83973,-4.249943 1.228355,-1.228367 2.645004,-2.174942 4.249939,-2.839726 C 74.191772,51.83239 75.862823,51.5 77.599998,51.5 c 1.73716,0 3.408211,0.33239 5.013146,0.997173 1.604927,0.664784 3.021576,1.611359 4.249947,2.839726 1.228363,1.228359 2.174934,2.645008 2.839721,4.249939 0.664787,1.604934 0.997177,3.275989 0.997185,5.01316 z"
             style="fill:#000000;fill-opacity:0.2;fill-rule:nonzero;stroke:none"
             id="path238"
             inkscape:connector-curvature="0" /><path
             d="m 87.199997,64.599998 c 0,1.273034 -0.243591,2.49762 -0.730766,3.673752 -0.487175,1.17614 -1.180848,2.214295 -2.081017,3.114464 -0.900177,0.900169 -1.938331,1.593842 -3.114464,2.081017 -1.17614,0.487175 -2.400718,0.730766 -3.673752,0.730766 -1.27304,0 -2.497627,-0.243591 -3.673767,-0.730766 -1.176139,-0.487168 -2.214294,-1.18084 -3.114463,-2.081009 C 69.911591,70.488045 69.217918,69.44989 68.730751,68.273758 68.243576,67.097618 67.999992,65.873032 68,64.599998 c -8e-6,-1.27304 0.243576,-2.497631 0.730751,-3.673767 0.487167,-1.176136 1.18084,-2.214286 2.081017,-3.11446 0.900169,-0.900173 1.938324,-1.593849 3.114463,-2.08102 C 75.102371,55.243584 76.326958,55 77.599998,55 c 1.273034,0 2.497612,0.243584 3.673752,0.730751 1.176133,0.487171 2.214287,1.180847 3.114464,2.08102 0.900169,0.900174 1.593842,1.938324 2.081017,3.11446 0.487175,1.176136 0.730766,2.400727 0.730766,3.673767 z"
             style="fill:#ffffff;fill-opacity:1;fill-rule:nonzero;stroke:none"
             id="path240"
             inkscape:connector-curvature="0" /><path
             d="m 152.8,57.700001 v 13.100002 c 0,3 -2.39999,5.400002 -5.39999,5.400002 h -4.5 c -1.4,-3.599999 -2.2,-7.5 -2.2,-11.599999 0,-4.400001 0.9,-8.5 2.5,-12.299999 h 4.2 c 2.99998,-8e-6 5.39999,2.399994 5.39999,5.399994 z"
             style="fill:#43434f;fill-opacity:1;fill-rule:nonzero;stroke:none"
             id="path242"
             inkscape:connector-curvature="0" /><path
             d="m 116.9,64.599998 c 0,4.099999 -0.6,7.900002 -1.69999,11.599999 h -12.6 c -3.000004,0 -5.400005,-2.400002 -5.400005,-5.400002 V 57.700001 c 0,-3 2.400001,-5.400002 5.400005,-5.400002 h 12.3 c 1.29999,3.900002 1.99999,8 1.99999,12.299999 z"
             style="fill:#000000;fill-opacity:0.2;fill-rule:nonzero;stroke:none"
             id="path244"
             inkscape:connector-curvature="0" /><path
             d="m 152.8,57.700001 v 13.100002 c 0,3 -2.39999,5.400002 -5.39999,5.400002 h -4.5 c -1.4,-3.599999 -2.2,-7.5 -2.2,-11.599999 0,-4.400001 0.9,-8.5 2.5,-12.299999 h 4.2 c 2.99998,-8e-6 5.39999,2.399994 5.39999,5.399994 z"
             style="fill:#000000;fill-opacity:0.2;fill-rule:nonzero;stroke:none"
             id="path246"
             inkscape:connector-curvature="0" /><path
             d="M 43,73.300003 H 30.1 c -2.2,0 -4,-1.800003 -4,-4 v -7.5 c 0,-2.200001 1.8,-4 4,-4 H 43 c 2.200001,0 4,1.799999 4,4 v 7.5 c 0,2.199997 -1.799999,4 -4,4 z"
             style="fill:#ffffff;fill-opacity:1;fill-rule:nonzero;stroke:none"
             id="path248"
             inkscape:connector-curvature="0" /></g></g></g></g></svg>